<?xml version="1.0" encoding="utf-8"?>
<!-- Generator: Adobe Illustrator 23.0.1, SVG Export Plug-In . SVG Version: 6.00 Build 0)  -->
<svg version="1.1" id="Livello_1" xmlns="http://www.w3.org/2000/svg" xmlns:xlink="http://www.w3.org/1999/xlink" x="0px" y="0px"
	 viewBox="0 0 615.327 500" enable-background="new 0 0 615.327 500" xml:space="preserve">
<g>
	<path fill="#00AFAA" d="M469.461,249.985c0,89.079-72.266,161.309-161.338,161.309c-89.101,0-161.302-72.229-161.302-161.309
		c0-89.072,72.2-161.279,161.302-161.279C397.194,88.706,469.461,160.914,469.461,249.985 M308.123,0
		C170.031,0,58.1,111.924,58.1,249.985C58.1,388.062,170.031,500,308.123,500c138.062,0,249.985-111.938,249.985-250.015
		C558.108,111.924,446.184,0,308.123,0"/>
	<rect y="199.516" fill="#000F9F" width="615.327" height="101.127"/>
	<g>
		<path fill="#FFFFFF" d="M247.72,276.261h-14.522v-52.064h17.794c18.035,0,27.712,11.865,27.712,25.37
			C278.704,263.54,268.479,276.261,247.72,276.261 M249.199,233.017h-5.848v34.109h4.992c12.099,0,20.056-6.785,20.056-17.172
			C268.398,239.502,261.145,233.017,249.199,233.017"/>
		<polygon fill="#FFFFFF" points="293.849,276.259 293.849,224.195 303.994,224.195 303.994,266.736 325.689,266.736 
			325.689,276.259 		"/>
		<path fill="#FFFFFF" d="M368.772,276.261l-14.361-20.758h-4.677v20.758h-10.152v-52.064h16.857
			c10.701,0,17.721,5.621,17.721,15.217c0,6.405-3.587,11.477-9.83,13.739l16.381,23.108H368.772z M355.502,233.017h-5.768v13.659
			h4.838c5.929,0,9.442-2.65,9.442-7.173C364.015,235.44,360.809,233.017,355.502,233.017"/>
	</g>
</g>
</svg>
