<!-- <svg width="100" height="50" viewBox="0 0 100 60" xmlns="http://www.w3.org/2000/svg"
    xmlns:bx="https://boxy-svg.com">

    <rect fill="white" stroke="black" stroke-width="2" style="" x="19.106" y="5.407" width="68.241"
        height="29.29" rx="3" ry="3"></rect>
    <circle cx="26.592" cy="42.436" r="7" fill="white" stroke="black" style="stroke-width: 2.425px;"
        transform="matrix(0.480956, 0, 0, 0.491007, 13.812427, 17.511608)"></circle>
    <circle cx="26.592" cy="42.436" r="7" fill="white" stroke="black" style="stroke-width: 2.425px;"
        transform="matrix(0.480956, 0, 0, 0.491007, 24.182417, 17.532494)"></circle>
    <circle cx="26.592" cy="42.436" r="7" fill="white" stroke="black" style="stroke-width: 2.425px;"
        transform="matrix(0.480956, 0, 0, 0.491007, 57.386314, 17.34112)"></circle>
    <circle cx="26.592" cy="42.436" r="7" fill="white" stroke="black" style="stroke-width: 2.425px;"
        transform="matrix(0.480956, 0, 0, 0.491007, 67.940575, 17.143211)"></circle>
    <rect x="29.902" y="37.02" width="3.836" height="2.576" style="stroke: rgb(0, 0, 0);"></rect>
    <rect x="73.519" y="36.935" width="3.836" height="2.576" style="stroke: rgb(0, 0, 0);"></rect>
</svg> -->

<svg xmlns="http://www.w3.org/2000/svg" width="30" height="60" viewBox="0 0 30 56">
    <!-- Train Car Body -->
    <rect x="1" y="1" width="30" height="54"
        fill="white"
        stroke="black"
        rx="5"
        ry="5"
    />

    <!-- Connector -->
    <!-- <rect x="15" y="55" width="1" height="4"
        fill="white"
        stroke="black"
        stroke-width="1"
    /> -->


    <!-- Windows -->
    <!-- <rect x="50" y="15" width="10" height="10" fill="white" stroke="black" stroke-width="1"
    rx="2" ry="2"/>
    <rect x="60" y="15" width="10" height="10" fill="white" stroke="black" stroke-width="1" rx="2"
    ry="2"/> -->

    <!-- Wheels -->
    <!-- <circle cx="10" cy="35" r="6" fill="black" />
    <circle cx="17" cy="35" r="6" fill="black" />
    <circle cx="63" cy="35" r="6" fill="black" />
    <circle cx="70" cy="35" r="6" fill="black" /> -->

</svg>